<?xml version="1.0" encoding="UTF-8"?> <svg xmlns="http://www.w3.org/2000/svg" width="1200" height="173" viewBox="0 0 1200 173" fill="none"> <path fill-rule="evenodd" clip-rule="evenodd" d="M1155.04 95.5993C1155.04 112.8 1160.92 120.897 1171.67 120.897C1179.58 120.897 1181.14 115.446 1184.27 107.551V114.788C1184.27 122.624 1194.63 121.607 1198.63 116.156C1200.19 114.019 1200.56 113.05 1198.99 111.753C1198.08 111.009 1197.47 110.401 1197.33 108.738L1197.32 101.812V75.4994C1197.32 71.5523 1195.12 69.9541 1190.8 69.9541C1186.48 69.9541 1184.27 71.5523 1184.27 75.4994V80.0118C1180.96 73.8078 1178.11 69.3909 1171.67 69.3909C1160.92 69.3909 1155.04 78.3994 1155.04 95.5993ZM1175.4 107.424C1172.95 107.424 1170.96 104.748 1170.96 102.25V95.4985V88.8247C1170.96 86.328 1172.95 83.4152 1175.4 83.4152C1177.84 83.4152 1179.84 85.4583 1179.84 87.9564V102.883C1179.84 105.38 1177.84 107.424 1175.4 107.424Z" fill="#EF7F1A"></path> <path d="M268.124 121.585C278.513 121.585 284.949 113.878 284.949 107.393C284.949 105.23 283.662 104.197 282.467 104.197C279.157 104.197 276.821 109.602 270.515 108.897C266.281 108.423 264.32 107.874 262.849 102.234C279.399 102.234 286.152 98.7294 286.152 86.7926C286.152 80.0254 278.697 70.0786 268.124 70.0786C253.69 70.0786 244.679 79.9474 244.679 95.8321C244.679 111.716 253.69 121.585 268.124 121.585ZM267.849 81.2627C270.607 81.2627 271.986 82.6734 271.986 84.6466C271.986 88.2187 271.072 95.7044 262.061 95.7044C261.164 89.0622 262.7 81.2627 267.849 81.2627Z" fill="#EF7F1A"></path> <path d="M436.057 121.585C446.814 121.585 451.881 113.032 451.881 95.8321C451.881 78.6315 446.814 70.0786 436.057 70.0786C429.172 70.0786 426.858 74.2119 424.311 80.4932C423.095 77.2921 420.894 70.6418 416.619 70.6418C412.297 70.6418 410.09 72.2414 410.09 76.1872V136.332C410.09 140.278 413.032 143.378 417.353 143.378C420.996 143.378 423.85 141.531 426.084 138.483C427.853 136.066 428.272 134.968 426.491 133.5C425.469 132.658 424.769 131.97 424.617 130.088V112.939C428.019 118.484 430.817 121.585 436.057 121.585ZM430.588 83.4147C433.031 83.4147 435.03 86.3275 435.03 88.8243V95.498V102.25C435.03 104.747 433.031 107.423 430.588 107.423C428.145 107.423 426.146 105.38 426.146 102.882V87.956C426.146 85.4578 428.145 83.4147 430.588 83.4147Z" fill="#EF7F1A"></path> <path d="M504.168 121.585C517.867 121.585 524.854 112.938 524.854 105.419C524.854 102.693 523.292 101.378 521.729 101.378C518.236 101.378 514.741 108.144 506.467 108.144C497.089 108.144 492.124 101.284 492.124 89.5342C492.124 77.1276 496.905 70.9243 504.168 70.9243C509.317 70.9243 512.811 73.8378 512.811 78.5376C512.811 80.4174 513.73 81.5452 516.397 81.5452C521.453 81.5452 524.854 75.9999 524.854 72.3343C524.854 64.4388 517.04 57.4841 504.168 57.4841C487.802 57.4841 476.862 69.232 476.862 89.5342C476.862 109.836 487.802 121.585 504.168 121.585Z" fill="#EF7F1A"></path> <path fill-rule="evenodd" clip-rule="evenodd" d="M348.122 71.2935C351.484 71.2935 354.367 73.4952 355.458 76.5592C357.795 73.3675 361.521 71.2935 365.698 71.2935C366.66 71.2935 367.598 71.403 368.501 71.6121C372.164 72.4582 375.245 74.9234 376.977 78.2273C377.283 77.644 377.631 77.0861 378.016 76.5592C380.353 73.3675 384.079 71.2935 388.256 71.2935C389.218 71.2935 390.156 71.403 391.059 71.6121C396.755 72.9266 401.041 78.1574 401.041 84.3627V106.387C401.306 107.703 401.942 108.307 402.809 109.022C404.59 110.49 404.171 111.587 402.402 114.005C400.392 116.748 397.878 118.517 394.741 118.844C394.254 118.942 393.753 118.994 393.238 118.994C388.946 118.994 385.435 115.405 385.435 111.018V87.3253C385.435 85.3702 383.872 83.7713 381.959 83.7713C380.046 83.7713 378.483 85.3702 378.483 87.3253V111.018C378.483 115.405 374.972 118.994 370.68 118.994C366.388 118.994 362.877 115.405 362.877 111.018V87.3253C362.877 85.3702 361.314 83.7713 359.401 83.7713C357.488 83.7713 355.925 85.3702 355.925 87.3253V111.018C355.925 115.405 352.414 118.994 348.122 118.994C343.83 118.994 340.319 115.405 340.319 111.018V79.2697C340.319 74.8824 343.83 71.2935 348.122 71.2935Z" fill="#EF7F1A"></path> <path fill-rule="evenodd" clip-rule="evenodd" d="M321.747 71.2935H325.779C328.99 71.2935 331.618 73.9798 331.618 77.2629V106.105C331.846 107.621 332.508 108.258 333.435 109.022C335.217 110.49 334.797 111.587 333.028 114.005C330.978 116.802 328.405 118.588 325.18 118.863C324.719 118.949 324.246 118.994 323.762 118.994C319.441 118.994 315.907 115.381 315.907 110.964V100.338H307.206V110.964C307.206 115.381 303.671 118.994 299.351 118.994C295.03 118.994 291.495 115.381 291.495 110.964V77.2629C291.495 73.9798 294.123 71.2935 297.334 71.2935H301.366C304.578 71.2935 307.206 73.9798 307.206 77.2629V90.2293H315.907V77.2629C315.907 73.9798 318.535 71.2935 321.747 71.2935Z" fill="#EF7F1A"></path> <path d="M549.823 121.585C560.213 121.585 566.648 113.878 566.648 107.393C566.648 105.23 565.362 104.197 564.166 104.197C560.857 104.197 558.52 109.602 552.214 108.897C547.98 108.423 546.019 107.874 544.548 102.234C561.098 102.234 567.851 98.7294 567.851 86.7926C567.851 80.0254 560.397 70.0786 549.823 70.0786C535.388 70.0786 526.378 79.9474 526.378 95.8321C526.378 111.716 535.388 121.585 549.823 121.585ZM549.547 81.2627C552.305 81.2627 553.685 82.6734 553.685 84.6466C553.685 88.2187 552.771 95.7044 543.761 95.7044C542.863 89.0622 544.399 81.2627 549.547 81.2627Z" fill="#EF7F1A"></path> <path fill-rule="evenodd" clip-rule="evenodd" d="M932.481 71.2935C935.843 71.2935 938.726 73.4952 939.816 76.5592C942.153 73.3675 945.879 71.2935 950.057 71.2935C951.018 71.2935 951.956 71.403 952.859 71.6121C956.523 72.4582 959.604 74.9234 961.335 78.2273C961.641 77.644 961.989 77.0861 962.374 76.5592C964.712 73.3675 968.437 71.2935 972.614 71.2935C973.576 71.2935 974.514 71.403 975.417 71.6121C981.112 72.9266 985.399 78.1574 985.399 84.3627V106.387C985.664 107.703 986.3 108.307 987.167 109.022C988.949 110.49 988.53 111.587 986.76 114.005C984.75 116.748 982.236 118.517 979.099 118.844C978.612 118.942 978.11 118.994 977.597 118.994C973.305 118.994 969.794 115.405 969.794 111.018V87.3253C969.794 85.3702 968.23 83.7713 966.317 83.7713C964.405 83.7713 962.841 85.3702 962.841 87.3253V111.018C962.841 115.405 959.33 118.994 955.039 118.994C950.747 118.994 947.236 115.405 947.236 111.018V87.3253C947.236 85.3702 945.672 83.7713 943.759 83.7713C941.847 83.7713 940.283 85.3702 940.283 87.3253V111.018C940.283 115.405 936.772 118.994 932.481 118.994C928.189 118.994 924.678 115.405 924.678 111.018V79.2697C924.678 74.8824 928.189 71.2935 932.481 71.2935Z" fill="#EF7F1A"></path> <path fill-rule="evenodd" clip-rule="evenodd" d="M1046.34 71.2935C1049.71 71.2935 1052.59 73.4952 1053.68 76.5592C1056.02 73.3675 1059.74 71.2935 1063.92 71.2935C1064.88 71.2935 1065.82 71.403 1066.72 71.6121C1070.39 72.4582 1073.47 74.9234 1075.2 78.2273C1075.5 77.644 1075.85 77.0861 1076.24 76.5592C1078.57 73.3675 1082.3 71.2935 1086.48 71.2935C1087.44 71.2935 1088.38 71.403 1089.28 71.6121C1094.98 72.9266 1099.26 78.1574 1099.26 84.3627V106.387C1099.53 107.703 1100.16 108.307 1101.03 109.022C1102.81 110.49 1102.39 111.587 1100.62 114.005C1098.61 116.748 1096.1 118.517 1092.96 118.844C1092.48 118.942 1091.97 118.994 1091.46 118.994C1087.17 118.994 1083.66 115.405 1083.66 111.018V87.3253C1083.66 85.3702 1082.09 83.7713 1080.18 83.7713C1078.27 83.7713 1076.7 85.3702 1076.7 87.3253V111.018C1076.7 115.405 1073.19 118.994 1068.9 118.994C1064.61 118.994 1061.1 115.405 1061.1 111.018V87.3253C1061.1 85.3702 1059.53 83.7713 1057.62 83.7713C1055.71 83.7713 1054.15 85.3702 1054.15 87.3253V111.018C1054.15 115.405 1050.64 118.994 1046.34 118.994C1042.05 118.994 1038.54 115.405 1038.54 111.018V79.2697C1038.54 74.8824 1042.05 71.2935 1046.34 71.2935Z" fill="#EF7F1A"></path> <path d="M902.637 121.585C913.026 121.585 919.462 113.878 919.462 107.393C919.462 105.23 918.175 104.197 916.98 104.197C913.67 104.197 911.333 109.602 905.028 108.897C900.794 108.423 898.833 107.874 897.362 102.234C913.911 102.234 920.665 98.7294 920.665 86.7926C920.665 80.0254 913.21 70.0786 902.637 70.0786C888.202 70.0786 879.191 79.9474 879.191 95.8321C879.191 111.716 888.202 121.585 902.637 121.585ZM902.361 81.2627C905.119 81.2627 906.498 82.6734 906.498 84.6466C906.498 88.2187 905.585 95.7044 896.574 95.7044C895.676 89.0622 897.212 81.2627 902.361 81.2627Z" fill="#EF7F1A"></path> <path fill-rule="evenodd" clip-rule="evenodd" d="M713.052 118.264C717.489 119.346 721.189 116.085 723.578 110.374C724.097 109.025 724.991 106.301 723.554 106.517C721.662 106.799 720.078 104.918 720.078 102.963V79.2697C720.078 74.8824 716.568 71.2935 712.275 71.2935C707.984 71.2935 704.473 74.8824 704.473 79.2697V102.963C704.473 104.918 702.909 106.517 700.996 106.517C699.084 106.517 697.52 104.918 697.52 102.963V79.2697C697.52 74.8824 694.009 71.2935 689.717 71.2935C689.203 71.2935 688.702 71.3459 688.215 71.4433C685.078 71.77 682.564 73.5403 680.554 76.283C678.784 78.6998 678.365 79.798 680.146 81.2658C681.014 81.9809 681.65 82.5844 681.915 83.901V105.924C681.915 112.13 686.201 117.361 691.897 118.676C692.799 118.885 693.738 118.994 694.7 118.994C698.877 118.994 702.603 116.92 704.939 113.729C705.325 113.201 705.673 112.644 705.979 112.061C707.485 114.933 710.01 117.172 713.052 118.264Z" fill="#EF7F1A"></path> <path fill-rule="evenodd" clip-rule="evenodd" d="M779.451 118.264C783.887 119.346 787.588 116.085 789.977 110.374C790.496 109.025 791.39 106.301 789.953 106.517C788.06 106.799 786.477 104.918 786.477 102.963V79.2697C786.477 74.8824 782.967 71.2935 778.674 71.2935C774.382 71.2935 770.872 74.8824 770.872 79.2697V102.963C770.872 104.918 769.308 106.517 767.395 106.517C765.483 106.517 763.919 104.918 763.919 102.963V79.2697C763.919 74.8824 760.409 71.2935 756.116 71.2935C755.602 71.2935 755.101 71.3459 754.614 71.4433C751.477 71.77 748.963 73.5403 746.952 76.283C745.183 78.6998 744.764 79.798 746.546 81.2658C747.413 81.9809 748.049 82.5844 748.314 83.901V105.924C748.314 112.13 752.6 117.361 758.295 118.676C759.198 118.885 760.137 118.994 761.099 118.994C765.276 118.994 769.002 116.92 771.338 113.729C771.724 113.201 772.072 112.644 772.378 112.061C773.883 114.933 776.409 117.172 779.451 118.264Z" fill="#EF7F1A"></path> <path d="M1017.41 122.623C1027.79 122.623 1034.23 114.917 1034.23 108.431C1034.23 106.27 1032.94 105.236 1031.75 105.236C1028.44 105.236 1026.23 109.935 1019.8 109.935C1013.36 109.935 1008.49 105.612 1008.49 96.8706C1008.49 88.5987 1011.89 83.8054 1017.41 83.8054C1020.44 83.8054 1022.19 85.4977 1022.19 88.5053C1022.19 90.3851 1023.11 91.5128 1025.77 91.5128C1030.83 91.5128 1034.23 86.7195 1034.23 83.0533C1034.23 76.5684 1027.98 71.1172 1017.41 71.1172C1002.97 71.1172 993.961 80.986 993.961 96.8706C993.961 112.755 1002.97 122.623 1017.41 122.623Z" fill="#EF7F1A"></path> <path d="M1149.13 105.824C1149.13 99.0339 1144.97 95.1432 1139.1 94.4563C1144.97 93.3118 1148.36 89.4211 1148.36 84.1567C1148.36 74.8491 1141.73 69.8898 1128.45 69.8898H1115.42C1111.79 69.8898 1109.32 71.1869 1109.32 74.3914V115.895C1109.32 119.099 1111.79 120.397 1115.42 120.397H1128.45C1143.73 120.397 1149.13 113.377 1149.13 105.824ZM1134.16 104.604C1134.16 108.266 1133.85 110.096 1128.22 110.096H1126.92V99.0339H1128.22C1133.86 99.0339 1134.16 100.941 1134.16 104.604ZM1133.39 85.3772C1133.39 88.9634 1133.08 90.6416 1128.3 90.6416H1126.92V80.1894H1128.3C1133.08 80.1894 1133.39 81.7917 1133.39 85.3772Z" fill="#EF7F1A"></path> <path fill-rule="evenodd" clip-rule="evenodd" d="M585.698 71.2935C592.331 71.0886 596.952 76.7643 597.994 84.7143C598.484 88.4497 599.056 93.0051 599.498 96.1229C600.171 100.869 600.175 100.893 601.119 96.174C602.095 91.296 602.764 82.4131 604.937 77.4276C606.203 74.5202 608.935 71.4038 615.379 71.2935C622.185 71.1773 628.163 77.4935 628.163 84.3628V106.387C628.429 107.703 629.068 108.31 629.932 109.022C631.711 110.487 631.293 111.591 629.525 114.005C627.519 116.745 625.001 118.517 621.864 118.844C621.377 118.942 620.875 118.994 620.361 118.994C616.069 118.994 612.559 115.406 612.559 111.018V87.3253C612.559 85.3703 613.007 82.1087 612.002 83.7714C607.373 91.4291 608.822 115.032 602.805 117.908C600.564 118.978 599.717 119.08 598.083 118.443C591.243 115.77 591.249 95.147 589.169 86.5101C587.528 79.6966 585.967 76.8395 585.967 87.3253V111.018C585.967 115.406 582.457 118.994 578.165 118.994C573.873 118.994 570.363 115.406 570.363 111.018V79.2698C570.363 70.2357 583.254 71.3688 585.698 71.2935Z" fill="#EF7F1A"></path> <path fill-rule="evenodd" clip-rule="evenodd" d="M191.643 59.153H198.041C201.253 59.153 203.881 61.8392 203.881 65.123V104.012H212.224V65.123C212.224 61.8392 214.852 59.153 218.064 59.153H224.462C227.674 59.153 230.301 61.8392 230.301 65.123V104.012H231.571H231.592H231.613H232.451H234.707C237.978 104.012 240.654 106.748 240.654 110.092V124.874C240.654 127.907 238.227 130.389 235.26 130.389H231.06C228.093 130.389 225.666 127.907 225.666 124.874V117.437H221.263H194.842H193.603C192.269 117.437 191.049 116.919 190.125 116.069C187.538 114.44 185.803 111.515 185.803 108.197V65.123C185.803 61.8392 188.431 59.153 191.643 59.153Z" fill="#EF7F1A"></path> <path fill-rule="evenodd" clip-rule="evenodd" d="M822.853 130.387H818.653C815.686 130.387 813.259 127.906 813.259 124.873V110.09C813.259 106.746 815.935 104.01 819.207 104.01H821.56H822.3H824.693V70.6051C824.693 63.4978 831.08 58.2845 840.762 58.2845C848.384 58.2845 856.006 58.2845 863.629 58.2845V104.01H863.704H864.541H866.797C870.068 104.01 872.745 106.746 872.745 110.09V124.873C872.745 127.906 870.317 130.387 867.35 130.387H863.151C860.183 130.387 857.756 127.906 857.756 124.873V117.436H828.247V124.873C828.247 127.906 825.82 130.387 822.853 130.387ZM846.634 70.4471C838.908 75.2915 838.29 89.6122 838.754 101.089C841.483 101.089 844.213 101.089 846.942 101.089C846.84 90.875 846.736 80.6614 846.634 70.4471Z" fill="#EF7F1A"></path> <path fill-rule="evenodd" clip-rule="evenodd" d="M655.2 83.7153C666.037 83.7153 674.822 91.9187 674.822 102.038C674.822 112.158 666.036 120.239 655.2 120.36C641.033 120.519 634.96 113.982 634.96 102.749V77.5234C634.96 74.2397 637.587 71.5533 640.799 71.5533H645.034C648.246 71.5533 650.874 74.2397 650.874 77.5234V84.1636C652.265 83.8712 653.714 83.7153 655.2 83.7153ZM655.087 92.406C657.53 92.406 659.529 94.4672 659.529 96.2341V100.958V105.737C659.529 107.504 657.53 109.397 655.087 109.397C652.643 109.397 650.644 107.951 650.644 106.184V95.6198C650.644 93.8523 652.643 92.406 655.087 92.406Z" fill="#EF7F1A"></path> <g clip-path="url(#clip0_32_430)"> <path fill-rule="evenodd" clip-rule="evenodd" d="M39.9068 50.6542C41.7556 56.8146 48.2059 61.9627 49.3631 67.5682C45.3412 67.1485 44.3935 63.2661 42.7258 60.6148C41.4966 58.6599 37.8556 53.2541 36.3925 52.1658C32.8007 48.6567 18.6918 39.2788 11.1619 44.3555C7.98154 47.8048 7.23125 51.4524 7.30748 56.5092L27.6809 68.4915L27.9712 70.747C26.8775 70.4527 26.9671 70.4059 25.5369 70.106L19.6724 66.4891C18.4273 67.432 19.5268 67.1436 17.2922 67.5738C11.3104 68.7253 7.57138 64.4893 2.54187 71.1884C2.52591 76.5833 4.08609 80.6877 6.54123 83.9464C10.7954 84.1628 15.6483 83.3672 19.5314 84.8824L18.7925 86.0604C16.7658 87.3841 12.9436 86.8151 9.617 87.058C22.3774 116.063 84.5638 116.281 112.238 100.949C117.322 98.1328 120.357 94.5228 123.696 92.8141L123.799 86.5148L77.2778 86.5807C74.4595 91.8879 73.0026 96.2008 66.1701 96.1982C58.953 96.1959 56.5047 92.2785 54.9516 86.4556L43.999 86.5309C40.4499 86.0011 42.0035 85.9848 41.0314 85.3332C42.3365 84.3183 39.9507 84.5655 43.998 83.9617L54.733 83.9437C56.2753 79.6321 57.9616 77.5849 60.7037 75.1051L46.5646 19.4037L40.5707 19.8879C37.8996 25.662 34.9222 25.0229 35.7214 35.0998C36.1025 39.9048 37.996 46.5213 39.9068 50.6542Z" fill="#EF7F1A"></path> <path fill-rule="evenodd" clip-rule="evenodd" d="M74.006 18.8939C74.1494 18.7809 74.2992 18.6375 74.3605 18.5773L84.1797 8.39106C83.4617 7.64981 83.0192 7.216 83.0192 5.52168C83.0192 3.82736 84.8524 1.40718 87.1134 1.40718C89.374 1.40718 91.2076 3.45772 91.2076 5.52168C91.2076 7.58564 89.9846 8.94634 88.3042 9.45905L93.6184 23.0542L101.459 16.0153C99.6898 13.3247 101.587 9.63585 104.877 9.63585C107.138 9.63585 108.971 11.4782 108.971 13.7504C108.971 16.6999 105.978 18.6598 103.317 17.5555L95.635 37.3569L95.9312 37.2918C96.141 38.1201 97.3985 38.826 98.4994 42.5875L99.3784 49.5C103.988 51.7735 103.294 58.3157 97.3386 59.1487C96.745 60.0611 96.1231 60.8842 94.9307 62.8703L108.322 60.1181C106.37 53.7786 112.889 54.8354 113.701 57.6685C114.325 57.8646 121.716 55.8052 120.601 63.1951C120.079 66.6606 116.621 66.9229 112.508 68.7528C107.991 70.7624 103.405 72.8545 99.1614 74.0823C103.719 76.2219 119.296 82.528 122.328 82.3587L122.76 76.4193C123.619 67.6157 130.43 65.6123 132.228 61.2401C132.621 57.4861 131.847 58.2385 136.262 55.7502C139.256 54.0624 141.514 52.7819 144.648 51.7847C146.131 51.3129 146.459 50.8309 147.41 52.003C148.34 53.149 148.805 53.8192 149.059 54.6383C149.392 55.7148 148.845 56.0213 147.842 56.8427C145.545 58.7234 140.052 60.9212 135.782 63.1279C135.398 63.3264 134.884 62.9724 134.526 63.1807C132.097 64.5914 129.834 66.8653 128.297 69.1551C121.28 79.6128 130.012 91.9026 122.125 103.527C116.173 112.301 108.374 114.544 97.4363 120.517L87.0769 126.116L70.3269 135.917L82.9114 142.255C82.4999 142.901 82.1315 143.602 81.8135 144.358L80.6381 146.8L65.3068 138.222L49.9759 146.8L48.8005 144.358C48.4822 143.602 48.1137 142.901 47.7023 142.255L60.2871 135.917L38.1218 122.947C28.2593 117.128 19.4532 114.842 11.2124 106.348C4.22396 99.1461 5.61312 90.8438 4.67224 86.5993C3.89361 83.0869 0.470554 80.9037 0.0489855 73.2634C-0.439044 64.4097 2.83609 61.926 4.69047 56.24C4.93579 55.4879 4.22982 53.8165 5.13062 50.9351C6.03142 48.0536 8.34387 42.4212 11.7894 38.8951C20.4847 29.9965 20.4107 32.4652 23.189 29.9173C25.6845 27.6277 26.1996 23.6783 33.581 19.935C37.0571 18.1723 46.3825 15.7305 49.5853 15.7449L55.6863 36.7217C56.3861 36.5135 57.789 36.0709 58.752 36.3763C59.8264 34.0819 62.7738 31.3945 65.0361 30.0512C65.7375 22.8319 66.4464 15.6139 67.1518 8.39532C65.2101 8.07348 63.7287 6.49342 63.7287 4.33615C63.7287 2.17888 65.5619 0.221649 67.8229 0.221649C70.0839 0.221649 71.9171 2.26302 71.9171 4.33615C71.9171 6.40928 70.6693 7.79256 68.9628 8.28891C70.5484 11.6494 72.1314 15.0118 73.7196 18.3713C73.7727 18.4836 73.8894 18.7161 74.006 18.8939ZM80.671 124.308C81.1326 124.044 81.031 124.107 81.5174 123.856L49.8502 124.158L65.2778 132.591L65.2785 132.622V132.612L80.671 124.308ZM65.8076 78.5792C69.6108 78.5792 72.6941 81.6774 72.6941 85.4995C72.6941 89.322 69.6108 92.4202 65.8076 92.4202C62.0043 92.4202 58.9211 89.322 58.9211 85.4995C58.9211 81.6774 62.0043 78.5792 65.8076 78.5792ZM78.5775 83.9211C82.5403 77.7174 87.7015 74.4041 96.8278 76.7166L119.229 83.8743L78.5775 83.9211ZM64.2793 67.9709C81.0447 76.0755 86.6032 68.8552 92.4717 65.7567L109.051 62.6689L110.574 67.045C110.426 67.1982 94.0185 72.8663 92.9463 73.1331C86.1546 74.8248 84.4354 73.4857 76.408 81.2744C73.1785 76.3266 72.667 75.107 65.2609 74.059L64.2793 67.9709ZM112.894 66.5019L109.74 57.2202C111.466 56.555 111.714 57.5653 112.459 59.8617C119.273 56.8172 121.795 64.9951 112.894 66.5019ZM90.8147 40.0773L93.1428 39.3593C96.9564 41.3768 96.8727 45.3842 97.0773 50.9305C101.674 51.5208 100.088 57.8862 95.9296 57.0464C94.5163 59.1493 93.0776 61.7188 91.4334 63.2763C84.4423 69.8993 74.9127 71.1441 67.3293 66.6289C64.8739 65.167 63.703 64.0296 62.8517 62.8948C61.1266 59.902 57.7795 44.1424 56.6291 39.7728C57.7691 38.6024 59.1478 39.0368 59.8365 39.3053C60.5497 37.3811 62.2229 35.2926 65.2778 33.2329C74.0689 39.2221 77.2629 41.1168 90.8147 40.0773ZM40.5708 19.8879L46.5646 19.4037L60.7038 75.1051C57.9616 77.5848 56.2754 79.6321 54.7331 83.9437L43.998 83.9617C39.9508 84.5654 42.3365 84.3182 41.0314 85.3332C42.0036 85.9847 40.4499 86.0011 43.999 86.5309L54.9517 86.4555C56.5047 92.2784 58.953 96.1958 66.1702 96.1981C73.0026 96.2008 74.4595 91.8879 77.2779 86.5806L123.799 86.5148L123.696 92.8141C115.952 134.511 2.80384 131.21 7.51766 86.5793L18.7925 86.0604L19.5314 84.8824C15.6483 83.3671 10.7954 84.1627 6.54127 83.9463C4.08614 80.6877 2.52595 76.5833 2.54191 71.1883C2.74097 66.4861 3.37463 62.5969 6.20018 59.4486C10.0321 60.6364 15.0414 64.5705 19.6725 66.4891L25.537 70.1059L27.9713 70.747L27.681 68.4915L7.30752 56.5091C7.23129 51.4524 7.98158 47.8047 11.1619 44.3555C12.9114 40.2433 18.4895 34.4312 23.7386 32.7791C27.1864 36.4985 34.5691 47.551 36.3925 52.1658C37.8557 53.2541 41.4967 58.6598 42.7258 60.6148C44.3936 63.2661 45.3413 67.1485 49.3631 67.5682C48.2059 61.9627 41.7556 56.8146 39.9068 50.6541C37.335 48.9569 26.9261 33.3282 25.9302 30.281C29.5445 24.9538 32.5219 22.2603 40.5708 19.8879Z" fill="#523418"></path> <path fill-rule="evenodd" clip-rule="evenodd" d="M123.696 92.8142C120.357 94.5229 117.322 98.1329 112.239 100.949C84.5639 116.281 22.3776 116.063 9.61712 87.0581C12.9437 86.8151 16.7659 87.3842 18.7926 86.0605L7.51774 86.5794C2.80393 131.21 115.952 134.511 123.696 92.8142Z" fill="#D44B26"></path> <path fill-rule="evenodd" clip-rule="evenodd" d="M39.9068 50.6541C37.996 46.5213 36.1026 39.9047 35.7214 35.0997C34.9222 25.0229 37.8996 25.662 40.5707 19.8878C32.5218 22.2602 29.5445 24.9538 25.9302 30.281C26.9261 33.3282 37.335 48.9568 39.9068 50.6541Z" fill="#D44B26"></path> <path fill-rule="evenodd" clip-rule="evenodd" d="M11.1619 44.3554C18.6918 39.2786 32.8007 48.6565 36.3925 52.1656C34.5691 47.5509 27.1864 36.4983 23.7386 32.779C18.4895 34.4311 12.9113 40.2432 11.1619 44.3554Z" fill="#F4BA57"></path> <path fill-rule="evenodd" clip-rule="evenodd" d="M2.54199 71.1883C7.5715 64.4892 11.3106 68.7252 17.2923 67.5737C19.5269 67.1435 18.4274 67.432 19.6725 66.489C15.0415 64.5704 10.0322 60.6363 6.20026 59.4485C3.37471 62.5968 2.74105 66.4861 2.54199 71.1883Z" fill="#F4BA57"></path> <path d="M67.8228 6.60046C69.0684 6.60046 70.0782 5.5862 70.0782 4.33505C70.0782 3.0839 69.0684 2.06964 67.8228 2.06964C66.5772 2.06964 65.5674 3.0839 65.5674 4.33505C65.5674 5.5862 66.5772 6.60046 67.8228 6.60046Z" fill="#FFED00"></path> <path d="M87.1133 7.78598C88.359 7.78598 89.3688 6.77172 89.3688 5.52057C89.3688 4.26942 88.359 3.25516 87.1133 3.25516C85.8677 3.25516 84.8579 4.26942 84.8579 5.52057C84.8579 6.77172 85.8677 7.78598 87.1133 7.78598Z" fill="#FFED00"></path> <path d="M104.877 16.0144C106.123 16.0144 107.133 15.0002 107.133 13.749C107.133 12.4979 106.123 11.4836 104.877 11.4836C103.632 11.4836 102.622 12.4979 102.622 13.749C102.622 15.0002 103.632 16.0144 104.877 16.0144Z" fill="#FFED00"></path> <path fill-rule="evenodd" clip-rule="evenodd" d="M66.6089 30.1378C67.2331 23.7456 67.8579 17.3533 68.4825 10.9607C69.7547 13.6572 71.0266 16.3534 72.2988 19.0499C73.267 21.0926 74.2339 20.9246 75.4908 19.6775C79.0758 15.9586 82.6614 12.2392 86.2464 8.52023C88.2819 13.727 90.3174 18.9337 92.3526 24.1407C92.6853 24.9056 93.1769 25.486 94.2262 24.6289C96.6087 22.4903 98.9912 20.3517 101.373 18.2131C98.8755 24.6521 96.3774 31.0909 93.8792 37.53C82.2411 39.7602 72.6952 38.1366 66.6089 30.1378Z" fill="#FFED00"></path> <path d="M65.8076 92.4201C69.6109 92.4201 72.6941 89.3216 72.6941 85.4994C72.6941 81.6772 69.6109 78.5787 65.8076 78.5787C62.0043 78.5787 58.9211 81.6772 58.9211 85.4994C58.9211 89.3216 62.0043 92.4201 65.8076 92.4201Z" fill="#EF7F1A"></path> <path fill-rule="evenodd" clip-rule="evenodd" d="M72.6524 84.7327C72.2726 88.1941 69.3529 90.8863 65.8076 90.8863C62.2624 90.8863 59.3427 88.1941 58.9629 84.7327C58.9355 84.9845 58.9211 85.2402 58.9211 85.4995C58.9211 89.322 62.0044 92.4202 65.8076 92.4202C69.6109 92.4202 72.6941 89.322 72.6941 85.4995C72.6941 85.2402 72.6801 84.9845 72.6524 84.7327Z" fill="#D44B26"></path> <path d="M146.438 54.1127C145.924 53.0797 142.896 53.555 139.674 55.1742C136.453 56.7934 134.258 58.9433 134.772 59.9763C135.286 61.0092 138.314 60.5339 141.536 58.9147C144.757 57.2955 146.952 55.1456 146.438 54.1127Z" fill="#D44B26"></path> <path fill-rule="evenodd" clip-rule="evenodd" d="M89.5977 38.1827L80.8686 14.0988C79.0758 15.9585 77.2833 17.8181 75.4908 19.6775C74.2339 20.9246 73.267 21.0925 72.2988 19.0498C71.0266 16.3533 69.7547 13.6571 68.4825 10.9606C67.8579 17.3532 67.2331 23.7455 66.6089 30.1377C71.9313 37.1324 79.8991 39.252 89.5977 38.1827Z" fill="#F7AA47"></path> <path fill-rule="evenodd" clip-rule="evenodd" d="M90.8147 40.077C77.2629 41.1166 74.0689 39.2219 65.2778 33.2326C62.2229 35.2923 60.5497 37.3809 59.8365 39.305C59.1478 39.0365 57.7691 38.6021 56.6292 39.7726C57.7795 44.1421 61.1266 59.9017 62.8517 62.8946C63.703 64.0293 64.8739 65.1667 67.3293 66.6286C74.9127 71.1439 84.4423 69.8991 91.4334 63.276C93.0776 61.7185 94.5163 59.149 95.9296 57.0461C100.088 57.8859 101.674 51.5205 97.0773 50.9302C96.8727 45.3839 96.9564 41.3765 93.1428 39.359L90.8147 40.077Z" fill="#FED4AE"></path> <path fill-rule="evenodd" clip-rule="evenodd" d="M109.74 57.2203L112.894 66.5019C121.795 64.9952 119.273 56.8172 112.459 59.8618C111.714 57.5654 111.466 56.555 109.74 57.2203Z" fill="#FED4AE"></path> <path fill-rule="evenodd" clip-rule="evenodd" d="M109.051 62.6688L92.4717 65.7566C86.6032 68.8551 81.0446 76.0754 64.2793 67.9708L65.2609 74.0589C72.667 75.1069 73.1785 76.3265 76.408 81.2742C84.4354 73.4856 86.1543 74.825 92.9463 73.133C94.0188 72.8658 110.426 67.1981 110.574 67.0449L109.051 62.6688Z" fill="#C1E3E2"></path> <path fill-rule="evenodd" clip-rule="evenodd" d="M119.229 83.8742L96.8277 76.7164C87.7014 74.404 82.5403 77.7173 78.5774 83.921L119.229 83.8742Z" fill="#EF7F1A"></path> <path d="M69.5786 51.8055C71.0733 51.8055 72.285 50.5885 72.285 49.0872C72.285 47.586 71.0733 46.3689 69.5786 46.3689C68.084 46.3689 66.8723 47.586 66.8723 49.0872C66.8723 50.5885 68.084 51.8055 69.5786 51.8055Z" fill="#523418"></path> <path d="M70.3763 49.5551C70.8834 49.5551 71.2944 49.1427 71.2944 48.6339C71.2944 48.1252 70.8834 47.7128 70.3763 47.7128C69.8693 47.7128 69.4583 48.1252 69.4583 48.6339C69.4583 49.1427 69.8693 49.5551 70.3763 49.5551Z" fill="#FEFEFE"></path> <path d="M83.1792 52.0376C84.6739 52.0376 85.8855 50.8205 85.8855 49.3193C85.8855 47.818 84.6739 46.601 83.1792 46.601C81.6846 46.601 80.4729 47.818 80.4729 49.3193C80.4729 50.8205 81.6846 52.0376 83.1792 52.0376Z" fill="#523418"></path> <path d="M83.9772 49.7875C84.4842 49.7875 84.8952 49.3751 84.8952 48.8664C84.8952 48.3577 84.4842 47.9453 83.9772 47.9453C83.4701 47.9453 83.0591 48.3577 83.0591 48.8664C83.0591 49.3751 83.4701 49.7875 83.9772 49.7875Z" fill="#FEFEFE"></path> <path fill-rule="evenodd" clip-rule="evenodd" d="M64.7219 40.057C64.0462 40.8803 64.7516 43.0099 65.8293 42.2026C66.7473 41.5148 70.114 40.7812 70.3079 39.9176C70.69 38.2176 69.8681 37.7222 68.1688 38.2798C67.5312 38.4889 64.9917 39.7285 64.7219 40.057Z" fill="#523418"></path> <path fill-rule="evenodd" clip-rule="evenodd" d="M91.0178 44.5807C91.4785 45.5421 90.2877 47.4414 89.4329 46.3991C88.7047 45.5114 85.6094 43.9924 85.626 43.1072C85.6589 41.3647 86.5751 41.0804 88.0926 42.029C88.6621 42.385 90.8338 44.1972 91.0178 44.5807Z" fill="#523418"></path> <path d="M88.212 59.0233C89.8983 59.0233 91.2653 57.6503 91.2653 55.9565C91.2653 54.2628 89.8983 52.8897 88.212 52.8897C86.5257 52.8897 85.1587 54.2628 85.1587 55.9565C85.1587 57.6503 86.5257 59.0233 88.212 59.0233Z" fill="#F58D5A"></path> <path d="M63.7867 56.7216C65.473 56.7216 66.84 55.3486 66.84 53.6548C66.84 51.9611 65.473 50.588 63.7867 50.588C62.1004 50.588 60.7334 51.9611 60.7334 53.6548C60.7334 55.3486 62.1004 56.7216 63.7867 56.7216Z" fill="#F58D5A"></path> <path d="M71.3641 61.7119C70.9116 61.4259 70.7758 60.8248 71.0605 60.3703C71.3456 59.9158 71.944 59.7793 72.3962 60.0657C74.0744 61.1252 75.6968 61.6465 77.2518 61.5195C78.7895 61.3939 80.3093 60.621 81.8063 59.0915C82.1813 58.7083 82.7947 58.7034 83.1762 59.08C83.5574 59.4567 83.5623 60.0729 83.1873 60.456C81.3414 62.3422 79.4088 63.3 77.4033 63.4636C75.4143 63.6262 73.3997 62.9973 71.3641 61.7119Z" fill="#523418"></path> <path fill-rule="evenodd" clip-rule="evenodd" d="M77.2279 51.165C75.3967 50.9794 73.7508 52.232 73.4009 54.0108L73.3328 54.6885C73.3227 56.502 74.6868 58.0592 76.5184 58.2445C76.6545 58.2582 76.7901 58.2641 76.924 58.2625L77.1204 56.303C76.9881 56.3236 76.851 56.3279 76.7119 56.3138C75.8277 56.2241 75.1833 55.4311 75.2722 54.5425C75.3612 53.6539 76.1506 53.0063 77.0344 53.0957C77.1739 53.1098 77.3071 53.1412 77.4325 53.188L77.629 51.2285C77.4983 51.2 77.3644 51.1788 77.2279 51.165Z" fill="#523418"></path> <path fill-rule="evenodd" clip-rule="evenodd" d="M31.9247 133.306C42.5597 133.306 51.1807 141.97 51.1807 152.658C51.1807 163.345 42.5597 172.009 31.9247 172.009C21.2897 172.009 12.6687 163.345 12.6687 152.658C12.6687 141.97 21.2897 133.306 31.9247 133.306ZM17.6347 148.462C20.3677 150.112 23.2643 151.457 26.2726 152.55L26.2733 152.524L26.2716 152.658L26.2726 152.765C23.2643 153.858 20.3677 155.203 17.6347 156.853C17.2483 155.522 17.0401 154.114 17.0401 152.658C17.0401 151.201 17.2483 149.793 17.6347 148.462ZM18.1677 158.376C20.7743 156.774 23.5689 155.446 26.5277 154.353L26.5134 154.306C27.0662 156.141 28.5173 157.583 30.3528 158.116L30.329 158.109C29.3024 160.958 27.9696 163.756 26.2612 166.494C22.6049 164.98 19.6803 162.047 18.1677 158.376ZM27.7817 167.028C29.466 164.279 30.8405 161.388 31.9169 158.339L31.7882 158.337L31.9247 158.339L32.0315 158.337C33.1194 161.361 34.4577 164.272 36.0993 167.019C34.7747 167.407 33.3738 167.616 31.9247 167.616C30.4867 167.616 29.0969 167.41 27.7817 167.028ZM37.6146 166.483C36.0208 163.863 34.7001 161.055 33.6119 158.081C35.4152 157.515 36.8304 156.066 37.3562 154.237L37.3494 154.261C40.1841 155.293 42.9689 156.632 45.6928 158.349C44.1867 162.023 41.2676 164.962 37.6146 166.483ZM46.2242 156.821C43.4895 155.129 40.6115 153.747 37.5778 152.665L37.5761 152.795L37.5778 152.658L37.5768 152.546L37.5778 152.65C40.6115 151.568 43.4895 150.187 46.2242 148.494C46.6047 149.816 46.809 151.213 46.809 152.658C46.809 154.102 46.6047 155.499 46.2242 156.821ZM45.6928 146.966C42.9689 148.683 40.1841 150.022 37.3494 151.054C36.8183 149.237 35.4074 147.797 33.6119 147.233C34.6994 144.26 36.0208 141.452 37.6146 138.832C41.2673 140.352 44.1867 143.292 45.6928 146.966ZM36.0993 138.296C34.4574 141.043 33.1194 143.954 32.0315 146.977L32.057 146.978L31.9247 146.976L31.8136 146.977L31.9169 146.976C30.8405 143.927 29.466 141.035 27.7817 138.287C29.0969 137.904 30.487 137.699 31.9247 137.699C33.3741 137.699 34.7747 137.908 36.0993 138.296ZM26.2612 138.821C27.9696 141.559 29.3024 144.357 30.329 147.206C28.5209 147.739 27.0884 149.157 26.5277 150.962C23.5689 149.868 20.7743 148.541 18.1677 146.939C19.6803 143.269 22.6049 140.334 26.2612 138.821ZM26.4472 154.067C26.4655 154.139 26.4854 154.211 26.5062 154.282C26.485 154.211 26.4652 154.139 26.4472 154.067ZM33.6058 147.232C33.4748 147.191 33.3419 147.155 33.207 147.123C33.3419 147.155 33.4751 147.191 33.6058 147.232Z" fill="#523418"></path> <path d="M31.9247 155.618C33.5536 155.618 34.874 154.292 34.874 152.656C34.874 151.02 33.5536 149.693 31.9247 149.693C30.2958 149.693 28.9753 151.02 28.9753 152.656C28.9753 154.292 30.2958 155.618 31.9247 155.618Z" fill="#FFED00"></path> <path fill-rule="evenodd" clip-rule="evenodd" d="M45.6933 158.349C42.9691 156.633 40.1839 155.293 37.3492 154.261C36.8182 156.079 35.4076 157.518 33.6118 158.081C34.6999 161.055 36.021 163.864 37.6151 166.484C41.2678 164.963 44.1875 162.024 45.6933 158.349Z" fill="#D44B26"></path> <path fill-rule="evenodd" clip-rule="evenodd" d="M26.2605 166.494C27.9693 163.757 29.3024 160.958 30.329 158.109C28.5205 157.575 27.0887 156.158 26.5277 154.353C23.5685 155.446 20.7739 156.774 18.167 158.376C19.6793 162.047 22.6045 164.981 26.2605 166.494Z" fill="#D44B26"></path> <path fill-rule="evenodd" clip-rule="evenodd" d="M18.167 146.939C20.7739 148.54 23.5685 149.868 26.5277 150.961C27.0887 149.157 28.5205 147.739 30.329 147.206C29.3024 144.357 27.9693 141.558 26.2605 138.82C22.6045 140.333 19.6793 143.267 18.167 146.939Z" fill="#D44B26"></path> <path fill-rule="evenodd" clip-rule="evenodd" d="M37.6151 138.831C36.0207 141.451 34.6996 144.26 33.6118 147.233C35.4072 147.797 36.8182 149.236 37.3492 151.054C40.1839 150.022 42.9691 148.682 45.6933 146.965C44.1875 143.291 41.2678 140.351 37.6151 138.831Z" fill="#D44B26"></path> <path fill-rule="evenodd" clip-rule="evenodd" d="M98.5967 133.306C109.232 133.306 117.853 141.97 117.853 152.658C117.853 163.345 109.232 172.009 98.5967 172.009C87.9617 172.009 79.3403 163.345 79.3403 152.658C79.3403 141.97 87.9617 133.306 98.5967 133.306ZM84.3063 148.462C87.0393 150.112 89.9362 151.457 92.9446 152.55L92.9449 152.524L92.9436 152.658L92.9446 152.765C89.9362 153.858 87.0393 155.203 84.3063 156.853C83.9202 155.522 83.7121 154.114 83.7121 152.658C83.7121 151.201 83.9202 149.793 84.3063 148.462ZM84.8396 158.376C87.4462 156.774 90.2405 155.446 93.1997 154.353L93.1853 154.306C93.7382 156.141 95.1893 157.583 97.0244 158.116L97.0009 158.109C95.9741 160.958 94.6413 163.756 92.9328 166.494C89.2768 164.98 86.3523 162.047 84.8396 158.376ZM94.4536 167.028C96.1379 164.279 97.5124 161.388 98.5885 158.339L98.4598 158.337L98.5967 158.339L98.7032 158.337C99.791 161.361 101.129 164.272 102.771 167.019C101.447 167.407 100.046 167.616 98.5967 167.616C97.1586 167.616 95.7685 167.41 94.4536 167.028ZM104.287 166.483C102.693 163.863 101.372 161.055 100.284 158.081C102.087 157.515 103.502 156.066 104.028 154.237L104.021 154.261C106.856 155.293 109.641 156.632 112.364 158.349C110.859 162.023 107.939 164.962 104.287 166.483ZM112.896 156.821C110.161 155.129 107.283 153.747 104.25 152.665L104.248 152.795L104.25 152.658L104.248 152.546L104.25 152.65C107.283 151.568 110.161 150.187 112.896 148.494C113.277 149.816 113.481 151.213 113.481 152.658C113.481 154.102 113.276 155.499 112.896 156.821ZM112.364 146.966C109.641 148.683 106.856 150.022 104.021 151.054C103.49 149.237 102.079 147.797 100.284 147.233C101.371 144.26 102.692 141.452 104.287 138.832C107.939 140.352 110.859 143.292 112.364 146.966ZM102.771 138.296C101.129 141.043 99.791 143.954 98.7032 146.977L98.7289 146.978L98.5967 146.976L98.4856 146.977L98.5885 146.976C97.5124 143.927 96.1379 141.035 94.4536 138.287C95.7685 137.904 97.159 137.699 98.5967 137.699C100.046 137.699 101.447 137.908 102.771 138.296ZM92.9328 138.821C94.6413 141.559 95.9741 144.357 97.0009 147.206C95.1925 147.739 93.76 149.157 93.1997 150.962C90.2405 149.868 87.4462 148.541 84.8396 146.939C86.3523 143.269 89.2768 140.334 92.9328 138.821ZM93.1189 154.067C93.1374 154.139 93.1573 154.211 93.1782 154.282C93.157 154.211 93.1371 154.139 93.1189 154.067ZM100.278 147.232C100.147 147.191 100.014 147.155 99.8789 147.123C100.014 147.155 100.147 147.191 100.278 147.232Z" fill="#523418"></path> <path d="M98.5968 155.618C100.226 155.618 101.546 154.292 101.546 152.656C101.546 151.02 100.226 149.693 98.5968 149.693C96.9679 149.693 95.6475 151.02 95.6475 152.656C95.6475 154.292 96.9679 155.618 98.5968 155.618Z" fill="#FFED00"></path> <path fill-rule="evenodd" clip-rule="evenodd" d="M112.366 158.349C109.641 156.633 106.856 155.293 104.021 154.261C103.491 156.079 102.08 157.518 100.284 158.081C101.372 161.055 102.693 163.864 104.287 166.484C107.94 164.963 110.86 162.024 112.366 158.349Z" fill="#D44B26"></path> <path fill-rule="evenodd" clip-rule="evenodd" d="M92.9325 166.494C94.6409 163.757 95.974 160.958 97.0009 158.109C95.1925 157.575 93.7603 156.158 93.1996 154.353C90.2402 155.446 87.4456 156.774 84.8386 158.376C86.3513 162.047 89.2762 164.981 92.9325 166.494Z" fill="#D44B26"></path> <path fill-rule="evenodd" clip-rule="evenodd" d="M84.8386 146.939C87.4456 148.54 90.2402 149.868 93.1996 150.961C93.7603 149.157 95.1925 147.739 97.0009 147.206C95.974 144.357 94.6409 141.558 92.9325 138.82C89.2762 140.333 86.3513 143.267 84.8386 146.939Z" fill="#D44B26"></path> <path fill-rule="evenodd" clip-rule="evenodd" d="M104.287 138.831C102.693 141.451 101.372 144.26 100.284 147.233C102.08 147.797 103.491 149.236 104.021 151.054C106.856 150.022 109.641 148.682 112.366 146.965C110.86 143.291 107.94 140.351 104.287 138.831Z" fill="#D44B26"></path> </g> <defs> <clipPath id="clip0_32_430"> <rect width="149.156" height="171.787" fill="white" transform="translate(0 0.221649)"></rect> </clipPath> </defs> </svg> 